# xmcd
#
# Track frame offsets: 
#        150
#        10025
#        23085
#        34208
#        45836
#        57069
#        66885
#        78343
#        88428
#        99481
#        109467
#        119469
#        130392
#        142692
#        155716
#        167573
#        181012
#        193917
#        208041
#        219720
#        235090
#        244900
#        257439
#        269254
#        281813
#
# Disc length: 3923 seconds
#
# Revision: 0
# Processed by: cddbd v1.5.2PL0 Copyright (c) Steve Scherf et al.
# Submitted via: ExactAudioCopy v0.95b3
#
DISCID=630f5119
DTITLE=Bill Haley  - Rock Around The Clock FLAC
DYEAR=1900
DGENRE=
TTITLE0=Rock Around The Clock
TTITLE1=Thirteen Women
TTITLE2=Shake Rattle And Roll
TTITLE3=Crazy Man Crazy
TTITLE4=ABC Boogie
TTITLE5=Chattanooga Choo Choo
TTITLE6=Dim Dim The Lights
TTITLE7=Birth Of The  Boogie
TTITLE8=Sundown Boogie
TTITLE9=Rock The Joint
TTITLE10=Life Of The Party
TTITLE11=Rocket 88
TTITLE12=Green The Boogie
TTITLE13=Icy Hearth
TTITLE14=Rose Of My Hearth
TTITLE15=Within This Broken Hearth Of Mine
TTITLE16=Cotton Haired Girl
TTITLE17=The Covered Wagon Rolled Right Along
TTITLE18=Wreck On The Highway
TTITLE19=My Mom Heard Me Crying
TTITLE20=Rovin' Eyes
TTITLE21=Candy And Women
TTITLE22=Foolish Question
TTITLE23=A Yodeller's Lullaby
TTITLE24=Yodel Your Blues Away
EXTD=
EXTT0=
EXTT1=
EXTT2=
EXTT3=
EXTT4=
EXTT5=
EXTT6=
EXTT7=
EXTT8=
EXTT9=
EXTT10=
EXTT11=
EXTT12=
EXTT13=
EXTT14=
EXTT15=
EXTT16=
EXTT17=
EXTT18=
EXTT19=
EXTT20=
EXTT21=
EXTT22=
EXTT23=
EXTT24=
PLAYORDER=
